<svg id="Ebene_1" data-name="Ebene 1" xmlns="http://www.w3.org/2000/svg" xmlns:xlink="http://www.w3.org/1999/xlink"
  width="1920" height="1080" viewBox="0 0 100% 100%">
  
  <defs>
    <linearGradient id="the_sky" x1="50%" y1="100%" x2="50%" y2="0%">
			<stop offset="0%" stop-color="#f0f"/>
			<stop offset="100%" stop-color="black" />
		</linearGradient>
    <polygon id="tree_polygon" points="50 0 70 40 100 80 50 70 0 80 30 40 50 0"/>
    <g id="tree">
      <use xlink:href="#tree_polygon" transform="translate(80, 000) scale(1.0)"/>
      <use xlink:href="#tree_polygon" transform="translate(70, 015) scale(1.2)"/>
      <use xlink:href="#tree_polygon" transform="translate(60, 030) scale(1.4)"/>
      <use xlink:href="#tree_polygon" transform="translate(50, 045) scale(1.6)"/>
      <use xlink:href="#tree_polygon" transform="translate(40, 060) scale(1.8)"/>
      <use xlink:href="#tree_polygon" transform="translate(30, 075) scale(2.0)"/>
      <use xlink:href="#tree_polygon" transform="translate(20, 090) scale(2.2)"/>
      <use xlink:href="#tree_polygon" transform="translate(10, 105) scale(2.4)"/>
      <use xlink:href="#tree_polygon" transform="translate(00, 120) scale(2.6)"/>
    </g>
    <animateTransform id="#rotate"
        attributeName="transform" type="rotate"
            from="0" to="360"
            dur="4s" repeatCount="indefinite"
    />
  </defs>

  <title>Weihnachtsmensch</title>

  <rect x="0" y="0" width="1920" height="1080" fill="url(#the_sky)"/>

  <g id="forest">
    <use xlink:href="#tree" fill="black" transform="translate(0200, 600) scale(0.8)"/>
    <use xlink:href="#tree" fill="white" transform="translate(0100, 570) scale(0.8)"/>
    <use xlink:href="#tree" fill="black" transform="translate(1170, 400) scale(1.0)"/>
    <use xlink:href="#tree" fill="black" transform="translate(1480, 450) scale(0.9)"/>
    <use xlink:href="#tree" fill="white" transform="translate(1100, 500) scale(0.8)"/>
    <use xlink:href="#tree" fill="white" transform="translate(1290, 340) scale(1.2)"/>
    <use xlink:href="#tree" fill="white" transform="translate(1595, 510) scale(0.8)"/>
  </g>

  <g id="ground">
    <ellipse cx="0" cy="1300" rx="1000" ry="500" fill="white"/>
    <ellipse cx="1400" cy="1200" rx="1000" ry="500" fill="white"/>
  </g>

  <polygon id="star"
    points=" 1077,424 1052,397 1014,403 1032,370 1014,337 1052,343 1077,316 1083,354 1117,370 1083,386 " fill="#ffd700">
    <animateTransform attributeName="transform" type="rotate"
      from="0 1060 370" to="360 1060 370"
      dur="4s" repeatCount="indefinite"/>
  </polygon>

<path d="M550.0 500.0 L520.23 514.69 L515.45 547.55 L492.27 523.78 L459.55 529.39 L475.0 500.0 L459.55 470.61 L492.27 476.22 L515.45 452.45 L520.23 485.31 Z" fill="yellow"><animateTransform attributeName="transform" type="rotate" from="0 500.0 500.0" to="360 500.0 500.0" repeatCount="indefinite" dur="6.7s"/></path>
  <path d="M40.0 0.0 L26.31 9.58 L30.64 25.71 L14.0 24.25 L6.95 39.39 L-4.86 27.57 L-20.0 34.64 L-21.45 18.0 L-37.59 13.68 L-28.0 0.0 L-37.59 -13.68 L-21.45 -18.0 L-20.0 -34.64 L-4.86 -27.57 L6.95 -39.39 L14.0 -24.25 L30.64 -25.71 L26.31 -9.58" fill="yellow">
    <animateTransform
        attributeName="transform" type="rotate"
            from="0 0 0" to="360 0 0"
            dur="4s" repeatCount="indefinite"
    />
  </path>
  <path transform="translate(1300 200)" d="M50.0 0.0 L24.45 5.2 L45.68 20.34 L20.23 14.69 L33.46 37.16 L12.5 21.65 L15.45 47.55 L2.61 24.86 L-5.23 49.73 L-7.73 23.78 L-25.0 43.3 L-16.73 18.58 L-40.45 29.39 L-22.84 10.17 L-48.91 10.4 L-25.0 0.0 L-48.91 -10.4 L-22.84 -10.17 L-40.45 -29.39 L-16.73 -18.58 L-25.0 -43.3 L-7.73 -23.78 L-5.23 -49.73 L2.61 -24.86 L15.45 -47.55 L12.5 -21.65 L33.46 -37.16 L20.23 -14.69 L45.68 -20.34 L24.45 -5.2" fill="yellow"/>
  <path transform="translate(100 300)" d="M60.0 0.0 L31.18 18.0 L30.0 51.96 L0.0 36.0 L-30.0 51.96 L-31.18 18.0 L-60.0 0.0 L-31.18 -18.0 L-30.0 -51.96 L0.0 -36.0 L30.0 -51.96 L31.18 -18.0" fill="yellow"/>
  <path transform="translate(1800 500)" d="M60.0 0.0 L40.57 10.87 L51.96 30.0 L29.7 29.7 L30.0 51.96 L10.87 40.57 L0.0 60.0 L-10.87 40.57 L-30.0 51.96 L-29.7 29.7 L-51.96 30.0 L-40.57 10.87 L-60.0 0.0 L-40.57 -10.87 L-51.96 -30.0 L-29.7 -29.7 L-30.0 -51.96 L-10.87 -40.57 L0.0 -60.0 L10.87 -40.57 L30.0 -51.96 L29.7 -29.7 L51.96 -30.0 L40.57 -10.87" fill="yellow"/>
  <path transform="translate(1600 320)" d="M50.0 0.0 L29.54 5.21 L46.98 17.1 L25.98 15.0 L38.3 32.14 L19.28 22.98 L25.0 43.3 L10.26 28.19 L8.68 49.24 L0.0 30.0 L-8.68 49.24 L-10.26 28.19 L-25.0 43.3 L-19.28 22.98 L-38.3 32.14 L-25.98 15.0 L-46.98 17.1 L-29.54 5.21 L-50.0 0.0 L-29.54 -5.21 L-46.98 -17.1 L-25.98 -15.0 L-38.3 -32.14 L-19.28 -22.98 L-25.0 -43.3 L-10.26 -28.19 L-8.68 -49.24 L0.0 -30.0 L8.68 -49.24 L10.26 -28.19 L25.0 -43.3 L19.28 -22.98 L38.3 -32.14 L25.98 -15.0 L46.98 -17.1 L29.54 -5.21" fill="yellow"/>
  <path transform="translate(300 400)" d="M60.0 0.0 L47.74 5.02 L58.69 12.47 L45.65 14.83 L54.81 24.4 L41.57 24.0 L48.54 35.27 L35.67 32.12 L40.15 44.59 L28.21 38.83 L30.0 51.96 L19.52 43.85 L18.54 57.06 L9.98 46.95 L6.27 59.67 L0.0 48.0 L-6.27 59.67 L-9.98 46.95 L-18.54 57.06 L-19.52 43.85 L-30.0 51.96 L-28.21 38.83 L-40.15 44.59 L-35.67 32.12 L-48.54 35.27 L-41.57 24.0 L-54.81 24.4 L-45.65 14.83 L-58.69 12.47 L-47.74 5.02 L-60.0 0.0 L-47.74 -5.02 L-58.69 -12.47 L-45.65 -14.83 L-54.81 -24.4 L-41.57 -24.0 L-48.54 -35.27 L-35.67 -32.12 L-40.15 -44.59 L-28.21 -38.83 L-30.0 -51.96 L-19.52 -43.85 L-18.54 -57.06 L-9.98 -46.95 L-6.27 -59.67 L0.0 -48.0 L6.27 -59.67 L9.98 -46.95 L18.54 -57.06 L19.52 -43.85 L30.0 -51.96 L28.21 -38.83 L40.15 -44.59 L35.67 -32.12 L48.54 -35.27 L41.57 -24.0 L54.81 -24.4 L45.65 -14.83 L58.69 -12.47 L47.74 -5.02" fill="yellow"/>
  <path transform="translate(900 180)" d="M40.0 0.0 L31.3 6.65 L36.54 16.27 L25.89 18.81 L26.77 29.73 L16.0 27.71 L12.36 38.04 L3.34 31.82 L-4.18 39.78 L-9.89 30.43 L-20.0 34.64 L-21.41 23.78 L-32.36 23.51 L-29.23 13.02 L-39.13 8.32 L-32.0 0.0 L-39.13 -8.32 L-29.23 -13.02 L-32.36 -23.51 L-21.41 -23.78 L-20.0 -34.64 L-9.89 -30.43 L-4.18 -39.78 L3.34 -31.82 L12.36 -38.04 L16.0 -27.71 L26.77 -29.73 L25.89 -18.81 L36.54 -16.27 L31.3 -6.65" fill="yellow"/>
  <path transform="translate(930 450)" d="M35.0 0.0 L9.99 3.24 L28.32 20.57 L6.17 8.49 L10.82 33.29 L0.0 10.5 L-10.82 33.29 L-6.17 8.49 L-28.32 20.57 L-9.99 3.24 L-35.0 0.0 L-9.99 -3.24 L-28.32 -20.57 L-6.17 -8.49 L-10.82 -33.29 L0.0 -10.5 L10.82 -33.29 L6.17 -8.49 L28.32 -20.57 L9.99 -3.24" fill="yellow"/>
  <path transform="translate(1880 150)" d="M30.0 0.0 L13.86 5.74 L21.21 21.21 L5.74 13.86 L0.0 30.0 L-5.74 13.86 L-21.21 21.21 L-13.86 5.74 L-30.0 0.0 L-13.86 -5.74 L-21.21 -21.21 L-5.74 -13.86 L0.0 -30.0 L5.74 -13.86 L21.21 -21.21 L13.86 -5.74" fill="yellow"/>
  <path transform="translate(560 630)" d="M30.0 0.0 L14.56 10.58 L9.27 28.53 L-5.56 17.12 L-24.27 17.63 L-18.0 0.0 L-24.27 -17.63 L-5.56 -17.12 L9.27 -28.53 L14.56 -10.58" fill="yellow"/>

  <g id="santa_clause" transform="translate(690, 800)">
    <circle cx=" 170" cy="-90" r="165" fill="#653500">
      <animateTransform attributeName="transform" type="translate"
        values="0 0;-80 0; 0 0"
        dur="2s" begin="-1s" repeatCount="indefinite"/>
    </circle>
    <circle cx=" 000" cy=" 000" r="200" fill="red"/>
    <circle cx=" 100" cy=" 190" r="055" fill="black"/>
    <circle cx="-100" cy=" 190" r="055" fill="black"/>
    <circle cx="-200" cy=" 000" r="055" fill="white"/>
    <g id="hand">
      <mask id="hand_mask">
        <rect x="-1000" y="-1000" width="2000" height="1000" fill="white"/>
        <circle cx="193" cy="-130" r="14"/>
        <circle cx="167" cy="-130" r="14"/>
        <circle cx="180" cy="-117" r="14"/>
        <circle cx="180" cy="-143" r="14"/>
      </mask>
      <circle cx="180" cy="-130" r="55" fill="white" mask="url(#hand_mask)"/>
      <animateTransform attributeName="transform" type="translate"
        values="0 0;-80 0;0 0"
        dur="2s" repeatCount="indefinite"/>
    </g>
    <circle cx="0" cy="-230" r="100" fill="#F9DEC0"/>
    <polygon points="-90,-190 90,-190 0,-20" fill="white"/>
    <ellipse cx=" 20" cy="-252" rx="14" ry="28" fill="white"/>
    <ellipse cx="-20" cy="-252" rx="14" ry="28" fill="white"/>
    <circle cx=" 22" cy="-259" r="8"/>
    <circle cx="-22" cy="-251" r="8"/>
    <ellipse cx="0" cy="-215" rx="34" ry="24">
      <animate attributeName="fill" attributeType="XML"
        values="red;purple;red"
        dur="9s" repeatCount="indefinite"/>
    </ellipse>
    <rect x="-83" y="-315" width="166" height="28" fill="white"/>
    <path d="M-83 -315 Q-30 -450,100 -460 Q30 -400,83 -315 Z" fill="red"/>
    <circle cx="100" cy="-460" r="25" fill="white"/>
  </g>

</svg>
