<svg id="Ebene_1" data-name="Ebene 1" xmlns="http://www.w3.org/2000/svg" xmlns:xlink="http://www.w3.org/1999/xlink"
  width="1920" height="1080" viewBox="0 0 100% 100%">
  
  <defs>
    <linearGradient id="the_sky" x1="50%" y1="100%" x2="50%" y2="0%">
			<stop offset="0%" stop-color="#f0f"/>
			<stop offset="100%" stop-color="black" />
		</linearGradient>
    <polygon id="tree_polygon" points="50 0 70 40 100 80 50 70 0 80 30 40 50 0"/>
    <g id="tree">
      <use xlink:href="#tree_polygon" transform="translate(80, 000) scale(1.0)"/>
      <use xlink:href="#tree_polygon" transform="translate(70, 015) scale(1.2)"/>
      <use xlink:href="#tree_polygon" transform="translate(60, 030) scale(1.4)"/>
      <use xlink:href="#tree_polygon" transform="translate(50, 045) scale(1.6)"/>
      <use xlink:href="#tree_polygon" transform="translate(40, 060) scale(1.8)"/>
      <use xlink:href="#tree_polygon" transform="translate(30, 075) scale(2.0)"/>
      <use xlink:href="#tree_polygon" transform="translate(20, 090) scale(2.2)"/>
      <use xlink:href="#tree_polygon" transform="translate(10, 105) scale(2.4)"/>
      <use xlink:href="#tree_polygon" transform="translate(00, 120) scale(2.6)"/>
    </g>
    <animateTransform id="#rotate"
        attributeName="transform" type="rotate"
            from="0" to="360"
            dur="4s" repeatCount="indefinite"
    />
  </defs>

  <title>Weihnachtsmensch</title>

  <rect x="0" y="0" width="1920" height="1080" fill="url(#the_sky)"/>

  <g id="forest">
    <use xlink:href="#tree" fill="black" transform="translate(0200, 600) scale(0.8)"/>
    <use xlink:href="#tree" fill="white" transform="translate(0100, 570) scale(0.8)"/>
    <use xlink:href="#tree" fill="black" transform="translate(1170, 400) scale(1.0)"/>
    <use xlink:href="#tree" fill="black" transform="translate(1480, 450) scale(0.9)"/>
    <use xlink:href="#tree" fill="white" transform="translate(1100, 500) scale(0.8)"/>
    <use xlink:href="#tree" fill="white" transform="translate(1290, 340) scale(1.2)"/>
    <use xlink:href="#tree" fill="white" transform="translate(1595, 510) scale(0.8)"/>
  </g>

  <g id="ground">
    <ellipse cx="0" cy="1300" rx="1000" ry="500" fill="white"/>
    <ellipse cx="1400" cy="1200" rx="1000" ry="500" fill="white"/>
  </g>

<path d="M550.0 500.0 L520.23 514.69 L515.45 547.55 L492.27 523.78 L459.55 529.39 L475.0 500.0 L459.55 470.61 L492.27 476.22 L515.45 452.45 L520.23 485.31 Z" fill="yellow"><animateTransform attributeName="transform" type="rotate" from="0 500.0 500.0" to="360 500.0 500.0" repeatCount="indefinite" dur="4.0s"/></path>

<path d="M1110.0 390.0 L1075.98 405.0 L1080.0 441.96 L1050.0 420.0 L1020.0 441.96 L1024.02 405.0 L990.0 390.0 L1024.02 375.0 L1020.0 338.04 L1050.0 360.0 L1080.0 338.04 L1075.98 375.0 Z" fill="yellow"><animateTransform attributeName="transform" type="rotate" from="0 1050.0 390.0" to="360 1050.0 390.0" repeatCount="indefinite" dur="5.0s"/></path>

<path d="M1360.0 200.0 L1329.84 203.14 L1358.69 212.47 L1328.53 209.27 L1354.81 224.4 L1325.98 215.0 L1348.54 235.27 L1322.29 220.07 L1340.15 244.59 L1317.63 224.27 L1330.0 251.96 L1312.2 227.41 L1318.54 257.06 L1306.24 229.34 L1306.27 259.67 L1300.0 230.0 L1293.73 259.67 L1293.76 229.34 L1281.46 257.06 L1287.8 227.41 L1270.0 251.96 L1282.37 224.27 L1259.85 244.59 L1277.71 220.07 L1251.46 235.27 L1274.02 215.0 L1245.19 224.4 L1271.47 209.27 L1241.31 212.47 L1270.16 203.14 L1240.0 200.0 L1270.16 196.86 L1241.31 187.53 L1271.47 190.73 L1245.19 175.6 L1274.02 185.0 L1251.46 164.73 L1277.71 179.93 L1259.85 155.41 L1282.37 175.73 L1270.0 148.04 L1287.8 172.59 L1281.46 142.94 L1293.76 170.66 L1293.73 140.33 L1300.0 170.0 L1306.27 140.33 L1306.24 170.66 L1318.54 142.94 L1312.2 172.59 L1330.0 148.04 L1317.63 175.73 L1340.15 155.41 L1322.29 179.93 L1348.54 164.73 L1325.98 185.0 L1354.81 175.6 L1328.53 190.73 L1358.69 187.53 L1329.84 196.86 Z" fill="yellow"><animateTransform attributeName="transform" type="rotate" from="0 1300.0 200.0" to="-360 1300.0 200.0" repeatCount="indefinite" dur="4.0s"/></path>

<path d="M135.0 300.0 L117.23 303.04 L132.89 311.97 L115.16 308.75 L126.81 322.5 L111.25 313.41 L117.5 330.31 L105.99 316.44 L106.08 334.47 L100.0 317.5 L93.92 334.47 L94.01 316.44 L82.5 330.31 L88.75 313.41 L73.19 322.5 L84.84 308.75 L67.11 311.97 L82.77 303.04 L65.0 300.0 L82.77 296.96 L67.11 288.03 L84.84 291.25 L73.19 277.5 L88.75 286.59 L82.5 269.69 L94.01 283.56 L93.92 265.53 L100.0 282.5 L106.08 265.53 L105.99 283.56 L117.5 269.69 L111.25 286.59 L126.81 277.5 L115.16 291.25 L132.89 288.03 L117.23 296.96 Z" fill="yellow"><animateTransform attributeName="transform" type="rotate" from="0 100.0 300.0" to="360 100.0 300.0" repeatCount="indefinite" dur="6.0s"/></path>

<path d="M1855.0 500.0 L1826.9 505.72 L1850.24 522.37 L1822.25 516.16 L1836.8 540.87 L1813.75 523.82 L1817.0 552.31 L1802.87 527.35 L1794.25 554.7 L1791.5 526.15 L1772.5 547.63 L1781.6 520.44 L1755.5 532.33 L1774.88 511.19 L1746.2 511.44 L1772.5 500.0 L1746.2 488.56 L1774.88 488.81 L1755.5 467.67 L1781.6 479.56 L1772.5 452.37 L1791.5 473.85 L1794.25 445.3 L1802.87 472.65 L1817.0 447.69 L1813.75 476.18 L1836.8 459.13 L1822.25 483.84 L1850.24 477.63 L1826.9 494.28 Z" fill="yellow"><animateTransform attributeName="transform" type="rotate" from="0 1800.0 500.0" to="360 1800.0 500.0" repeatCount="indefinite" dur="9.0s"/></path>

<path d="M1677.0 320.0 L1636.62 331.9 L1662.29 365.26 L1622.63 351.15 L1623.79 393.23 L1600.0 358.5 L1576.21 393.23 L1577.37 351.15 L1537.71 365.26 L1563.38 331.9 L1523.0 320.0 L1563.38 308.1 L1537.71 274.74 L1577.37 288.85 L1576.21 246.77 L1600.0 281.5 L1623.79 246.77 L1622.63 288.85 L1662.29 274.74 L1636.62 308.1 Z" fill="yellow"><animateTransform attributeName="transform" type="rotate" from="0 1600.0 320.0" to="360 1600.0 320.0" repeatCount="indefinite" dur="7.0s"/></path>

<path d="M330.0 400.0 L313.86 405.74 L321.21 421.21 L305.74 413.86 L300.0 430.0 L294.26 413.86 L278.79 421.21 L286.14 405.74 L270.0 400.0 L286.14 394.26 L278.79 378.79 L294.26 386.14 L300.0 370.0 L305.74 386.14 L321.21 378.79 L313.86 394.26 Z" fill="yellow"><animateTransform attributeName="transform" type="rotate" from="0 300.0 400.0" to="-360 300.0 400.0" repeatCount="indefinite" dur="6.0s"/></path>

<path d="M945.0 180.0 L921.84 195.87 L913.91 222.8 L891.66 205.68 L863.59 206.45 L873.0 180.0 L863.59 153.55 L891.66 154.32 L913.91 137.2 L921.84 164.13 Z" fill="yellow"><animateTransform attributeName="transform" type="rotate" from="0 900.0 180.0" to="-360 900.0 180.0" repeatCount="indefinite" dur="4.0s"/></path>

<path d="M960.0 450.0 L944.9 451.74 L959.19 456.92 L944.1 455.13 L956.81 463.46 L942.53 458.24 L952.98 469.28 L940.29 460.91 L947.91 474.06 L937.5 462.99 L941.88 477.55 L934.3 464.37 L935.21 479.54 L930.87 464.97 L928.26 479.95 L927.4 464.77 L921.4 478.74 L924.06 463.77 L915.0 475.98 L921.04 462.03 L909.41 471.82 L918.51 459.64 L904.94 466.49 L916.6 456.73 L901.81 460.26 L915.4 453.46 L900.2 453.48 L915.0 450.0 L900.2 446.52 L915.4 446.54 L901.81 439.74 L916.6 443.27 L904.94 433.51 L918.51 440.36 L909.41 428.18 L921.04 437.97 L915.0 424.02 L924.06 436.23 L921.4 421.26 L927.4 435.23 L928.26 420.05 L930.87 435.03 L935.21 420.46 L934.3 435.63 L941.88 422.45 L937.5 437.01 L947.91 425.94 L940.29 439.09 L952.98 430.72 L942.53 441.76 L956.81 436.54 L944.1 444.87 L959.19 443.08 L944.9 448.26 Z" fill="yellow"><animateTransform attributeName="transform" type="rotate" from="0 930.0 450.0" to="-360 930.0 450.0" repeatCount="indefinite" dur="7.0s"/></path>

<path d="M1920.0 150.0 L1896.18 161.76 L1892.36 188.04 L1873.82 169.02 L1847.64 173.51 L1860.0 150.0 L1847.64 126.49 L1873.82 130.98 L1892.36 111.96 L1896.18 138.24 Z" fill="yellow"><animateTransform attributeName="transform" type="rotate" from="0 1880.0 150.0" to="360 1880.0 150.0" repeatCount="indefinite" dur="3.0s"/></path>

<path d="M600.0 630.0 L578.79 636.84 L590.64 655.71 L570.0 647.32 L566.95 669.39 L556.53 649.7 L540.0 664.64 L544.68 642.86 L522.41 643.68 L540.0 630.0 L522.41 616.32 L544.68 617.14 L540.0 595.36 L556.53 610.3 L566.95 590.61 L570.0 612.68 L590.64 604.29 L578.79 623.16 Z" fill="yellow"><animateTransform attributeName="transform" type="rotate" from="0 560.0 630.0" to="-360 560.0 630.0" repeatCount="indefinite" dur="6.0s"/></path>

<path d="M563.0 200.0 L528.38 213.67 L539.28 249.26 L507.01 230.71 L485.98 261.42 L480.36 224.63 L443.24 227.33 L468.5 200.0 L443.24 172.67 L480.36 175.37 L485.98 138.58 L507.01 169.29 L539.28 150.74 L528.38 186.33 Z" fill="yellow"><animateTransform attributeName="transform" type="rotate" from="0 500.0 200.0" to="360 500.0 200.0" repeatCount="indefinite" dur="4.0s"/></path>
  <g id="santa_clause" transform="translate(690, 800)">
    <circle cx=" 170" cy="-90" r="165" fill="#653500">
      <animateTransform attributeName="transform" type="translate"
        values="0 0;-80 0; 0 0"
        dur="2s" begin="-1s" repeatCount="indefinite"/>
    </circle>
    <circle cx=" 000" cy=" 000" r="200" fill="red"/>
    <circle cx=" 100" cy=" 190" r="055" fill="black"/>
    <circle cx="-100" cy=" 190" r="055" fill="black"/>
    <circle cx="-200" cy=" 000" r="055" fill="white"/>
    <g id="hand">
      <mask id="hand_mask">
        <rect x="-1000" y="-1000" width="2000" height="1000" fill="white"/>
        <circle cx="193" cy="-130" r="14"/>
        <circle cx="167" cy="-130" r="14"/>
        <circle cx="180" cy="-117" r="14"/>
        <circle cx="180" cy="-143" r="14"/>
      </mask>
      <circle cx="180" cy="-130" r="55" fill="white" mask="url(#hand_mask)"/>
      <animateTransform attributeName="transform" type="translate"
        values="0 0;-80 0;0 0"
        dur="2s" repeatCount="indefinite"/>
    </g>
    <circle cx="0" cy="-230" r="100" fill="#F9DEC0"/>
    <polygon points="-90,-190 90,-190 0,-20" fill="white"/>
    <ellipse cx=" 20" cy="-252" rx="14" ry="28" fill="white"/>
    <ellipse cx="-20" cy="-252" rx="14" ry="28" fill="white"/>
    <circle cx=" 22" cy="-259" r="8"/>
    <circle cx="-22" cy="-251" r="8"/>
    <ellipse cx="0" cy="-215" rx="34" ry="24">
      <animate attributeName="fill" attributeType="XML"
        values="red;purple;red"
        dur="9s" repeatCount="indefinite"/>
    </ellipse>
    <rect x="-83" y="-315" width="166" height="28" fill="white"/>
    <path d="M-83 -315 Q-30 -450,100 -460 Q30 -400,83 -315 Z" fill="red"/>
    <circle cx="100" cy="-460" r="25" fill="white"/>
  </g>

</svg>
